# MagicaVoxel @ Ephtracy

# group
o 

# material
mtllib CARSMALL.mtl
usemtl palette

# normals
vn -1 0 0
vn 1 0 0
vn 0 0 1
vn 0 0 -1
vn 0 -1 0
vn 0 1 0

# texcoords
vt 0.306641 0.5
vt 0.642578 0.5
vt 0.666016 0.5
vt 0.669922 0.5
vt 0.958984 0.5
vt 0.982422 0.5
vt 0.994141 0.5

# verts
v 0 2.1 -0.3
v 0 2.1 -0.8
v 0 2.2 -0.3
v 0 2.2 -0.8
v 0 2.3 -0.3
v 0 2.3 -0.8
v 0 2.5 -0.3
v 0 2.5 -0.4
v 0 2.5 -0.7
v 0 2.5 -0.8
v 0 2.6 -0.4
v 0 2.6 -0.7
v 0.1 2 -0.3
v 0.1 2 -0.4
v 0.1 2 -0.7
v 0.1 2 -0.8
v 0.1 2.1 -0.3
v 0.1 2.1 -0.4
v 0.1 2.1 -0.7
v 0.1 2.1 -0.8
v 0.2 2.5 -0.3
v 0.2 2.5 -0.4
v 0.2 2.5 -0.7
v 0.2 2.5 -0.8
v 0.2 2.7 -0.4
v 0.2 2.7 -0.7
v 0.2 2.8 -0.3
v 0.2 2.8 -0.8
v 0.7 2 -0.3
v 0.7 2 -0.4
v 0.7 2 -0.7
v 0.7 2 -0.8
v 0.7 2.1 -0.3
v 0.7 2.1 -0.4
v 0.7 2.1 -0.7
v 0.7 2.1 -0.8
v 0.7 2.4 -0.2
v 0.7 2.4 -0.3
v 0.7 2.4 -0.8
v 0.7 2.4 -0.9
v 0.7 2.5 -0.3
v 0.7 2.5 -0.8
v 0.7 2.6 -0.2
v 0.7 2.6 -0.3
v 0.7 2.6 -0.8
v 0.7 2.6 -0.9
v 0.9 2.1 -0.4
v 0.9 2.1 -0.7
v 0.9 2.2 -0.4
v 0.9 2.2 -0.7
v 0.1 2.1 -0.4
v 0.1 2.1 -0.7
v 0.1 2.2 -0.4
v 0.1 2.2 -0.7
v 0.1 2.5 -0.4
v 0.1 2.5 -0.7
v 0.1 2.6 -0.4
v 0.1 2.6 -0.7
v 0.4 2 -0.3
v 0.4 2 -0.4
v 0.4 2 -0.7
v 0.4 2 -0.8
v 0.4 2.1 -0.3
v 0.4 2.1 -0.4
v 0.4 2.1 -0.7
v 0.4 2.1 -0.8
v 0.8 2.4 -0.2
v 0.8 2.4 -0.3
v 0.8 2.4 -0.8
v 0.8 2.4 -0.9
v 0.8 2.5 -0.3
v 0.8 2.5 -0.4
v 0.8 2.5 -0.7
v 0.8 2.5 -0.8
v 0.8 2.6 -0.2
v 0.8 2.6 -0.3
v 0.8 2.6 -0.8
v 0.8 2.6 -0.9
v 0.8 2.7 -0.4
v 0.8 2.7 -0.7
v 0.8 2.8 -0.3
v 0.8 2.8 -0.8
v 1 2 -0.3
v 1 2 -0.4
v 1 2 -0.7
v 1 2 -0.8
v 1 2.1 -0.3
v 1 2.1 -0.4
v 1 2.1 -0.7
v 1 2.1 -0.8
v 1 2.2 -0.4
v 1 2.2 -0.7
v 1.1 2.1 -0.3
v 1.1 2.1 -0.4
v 1.1 2.1 -0.7
v 1.1 2.1 -0.8
v 1.1 2.2 -0.3
v 1.1 2.2 -0.4
v 1.1 2.2 -0.7
v 1.1 2.2 -0.8
v 1.1 2.3 -0.3
v 1.1 2.3 -0.4
v 1.1 2.3 -0.7
v 1.1 2.3 -0.8
v 1.1 2.4 -0.3
v 1.1 2.4 -0.4
v 1.1 2.4 -0.7
v 1.1 2.4 -0.8
v 1.1 2.5 -0.3
v 1.1 2.5 -0.4
v 1.1 2.5 -0.7
v 1.1 2.5 -0.8
v 0.7 2.4 -0.2
v 0.7 2.6 -0.2
v 0.8 2.4 -0.2
v 0.8 2.6 -0.2
v 0 2.1 -0.3
v 0 2.2 -0.3
v 0 2.3 -0.3
v 0 2.5 -0.3
v 0.1 2 -0.3
v 0.1 2.1 -0.3
v 0.1 2.2 -0.3
v 0.1 2.3 -0.3
v 0.2 2.1 -0.3
v 0.2 2.2 -0.3
v 0.2 2.5 -0.3
v 0.2 2.8 -0.3
v 0.3 2.1 -0.3
v 0.3 2.2 -0.3
v 0.3 2.5 -0.3
v 0.3 2.7 -0.3
v 0.4 2 -0.3
v 0.4 2.1 -0.3
v 0.4 2.2 -0.3
v 0.4 2.3 -0.3
v 0.7 2 -0.3
v 0.7 2.1 -0.3
v 0.7 2.2 -0.3
v 0.7 2.3 -0.3
v 0.7 2.4 -0.3
v 0.7 2.5 -0.3
v 0.7 2.6 -0.3
v 0.7 2.7 -0.3
v 0.8 2.1 -0.3
v 0.8 2.2 -0.3
v 0.8 2.4 -0.3
v 0.8 2.5 -0.3
v 0.8 2.6 -0.3
v 0.8 2.8 -0.3
v 0.9 2.1 -0.3
v 0.9 2.2 -0.3
v 1 2 -0.3
v 1 2.1 -0.3
v 1 2.2 -0.3
v 1 2.3 -0.3
v 1 2.4 -0.3
v 1.1 2.1 -0.3
v 1.1 2.2 -0.3
v 1.1 2.3 -0.3
v 1.1 2.4 -0.3
v 1.1 2.5 -0.3
v 0 2.5 -0.4
v 0 2.6 -0.4
v 0.1 2.5 -0.4
v 0.1 2.6 -0.4
v 0.1 2 -0.7
v 0.1 2.1 -0.7
v 0.1 2.2 -0.7
v 0.2 2.1 -0.7
v 0.2 2.2 -0.7
v 0.3 2.1 -0.7
v 0.3 2.2 -0.7
v 0.4 2 -0.7
v 0.4 2.1 -0.7
v 0.4 2.2 -0.7
v 0.7 2 -0.7
v 0.7 2.1 -0.7
v 0.7 2.2 -0.7
v 0.8 2.1 -0.7
v 0.8 2.2 -0.7
v 0.9 2.1 -0.7
v 0.9 2.2 -0.7
v 1 2 -0.7
v 1 2.1 -0.7
v 1 2.2 -0.7
v 1.1 2.1 -0.7
v 1.1 2.2 -0.7
v 0.1 2 -0.4
v 0.1 2.1 -0.4
v 0.1 2.2 -0.4
v 0.2 2.1 -0.4
v 0.2 2.2 -0.4
v 0.3 2.1 -0.4
v 0.3 2.2 -0.4
v 0.4 2 -0.4
v 0.4 2.1 -0.4
v 0.4 2.2 -0.4
v 0.7 2 -0.4
v 0.7 2.1 -0.4
v 0.7 2.2 -0.4
v 0.8 2.1 -0.4
v 0.8 2.2 -0.4
v 0.9 2.1 -0.4
v 0.9 2.2 -0.4
v 1 2 -0.4
v 1 2.1 -0.4
v 1 2.2 -0.4
v 1.1 2.1 -0.4
v 1.1 2.2 -0.4
v 0 2.5 -0.7
v 0 2.6 -0.7
v 0.1 2.5 -0.7
v 0.1 2.6 -0.7
v 0 2.1 -0.8
v 0 2.2 -0.8
v 0 2.3 -0.8
v 0 2.5 -0.8
v 0.1 2 -0.8
v 0.1 2.1 -0.8
v 0.1 2.2 -0.8
v 0.1 2.3 -0.8
v 0.2 2.1 -0.8
v 0.2 2.2 -0.8
v 0.2 2.5 -0.8
v 0.2 2.8 -0.8
v 0.3 2.1 -0.8
v 0.3 2.2 -0.8
v 0.3 2.5 -0.8
v 0.3 2.7 -0.8
v 0.4 2 -0.8
v 0.4 2.1 -0.8
v 0.4 2.2 -0.8
v 0.4 2.3 -0.8
v 0.7 2 -0.8
v 0.7 2.1 -0.8
v 0.7 2.2 -0.8
v 0.7 2.3 -0.8
v 0.7 2.4 -0.8
v 0.7 2.5 -0.8
v 0.7 2.6 -0.8
v 0.7 2.7 -0.8
v 0.8 2.1 -0.8
v 0.8 2.2 -0.8
v 0.8 2.4 -0.8
v 0.8 2.5 -0.8
v 0.8 2.6 -0.8
v 0.8 2.8 -0.8
v 0.9 2.1 -0.8
v 0.9 2.2 -0.8
v 1 2 -0.8
v 1 2.1 -0.8
v 1 2.2 -0.8
v 1 2.3 -0.8
v 1 2.4 -0.8
v 1.1 2.1 -0.8
v 1.1 2.2 -0.8
v 1.1 2.3 -0.8
v 1.1 2.4 -0.8
v 1.1 2.5 -0.8
v 0.7 2.4 -0.9
v 0.7 2.6 -0.9
v 0.8 2.4 -0.9
v 0.8 2.6 -0.9
v 0.1 2 -0.3
v 0.4 2 -0.3
v 0.7 2 -0.3
v 1 2 -0.3
v 0.1 2 -0.4
v 0.4 2 -0.4
v 0.7 2 -0.4
v 1 2 -0.4
v 0.1 2 -0.7
v 0.4 2 -0.7
v 0.7 2 -0.7
v 1 2 -0.7
v 0.1 2 -0.8
v 0.4 2 -0.8
v 0.7 2 -0.8
v 1 2 -0.8
v 0 2.1 -0.3
v 0.1 2.1 -0.3
v 0.4 2.1 -0.3
v 0.7 2.1 -0.3
v 1 2.1 -0.3
v 1.1 2.1 -0.3
v 0.1 2.1 -0.4
v 0.4 2.1 -0.4
v 0.7 2.1 -0.4
v 0.9 2.1 -0.4
v 1 2.1 -0.4
v 1.1 2.1 -0.4
v 0.1 2.1 -0.7
v 0.4 2.1 -0.7
v 0.7 2.1 -0.7
v 0.9 2.1 -0.7
v 1 2.1 -0.7
v 1.1 2.1 -0.7
v 0 2.1 -0.8
v 0.1 2.1 -0.8
v 0.4 2.1 -0.8
v 0.7 2.1 -0.8
v 1 2.1 -0.8
v 1.1 2.1 -0.8
v 0.1 2.2 -0.4
v 0.2 2.2 -0.4
v 0.3 2.2 -0.4
v 0.4 2.2 -0.4
v 0.7 2.2 -0.4
v 0.8 2.2 -0.4
v 0.9 2.2 -0.4
v 1 2.2 -0.4
v 1.1 2.2 -0.4
v 0.1 2.2 -0.7
v 0.2 2.2 -0.7
v 0.3 2.2 -0.7
v 0.4 2.2 -0.7
v 0.7 2.2 -0.7
v 0.8 2.2 -0.7
v 0.9 2.2 -0.7
v 1 2.2 -0.7
v 1.1 2.2 -0.7
v 0.7 2.4 -0.2
v 0.8 2.4 -0.2
v 0.7 2.4 -0.3
v 0.8 2.4 -0.3
v 0.7 2.4 -0.8
v 0.8 2.4 -0.8
v 0.7 2.4 -0.9
v 0.8 2.4 -0.9
v 0 2.5 -0.3
v 0.2 2.5 -0.3
v 0.8 2.5 -0.3
v 1.1 2.5 -0.3
v 0 2.5 -0.4
v 0.1 2.5 -0.4
v 0.2 2.5 -0.4
v 0.8 2.5 -0.4
v 1.1 2.5 -0.4
v 0 2.5 -0.7
v 0.1 2.5 -0.7
v 0.2 2.5 -0.7
v 0.8 2.5 -0.7
v 1.1 2.5 -0.7
v 0 2.5 -0.8
v 0.2 2.5 -0.8
v 0.8 2.5 -0.8
v 1.1 2.5 -0.8
v 0.7 2.6 -0.2
v 0.8 2.6 -0.2
v 0.7 2.6 -0.3
v 0.8 2.6 -0.3
v 0 2.6 -0.4
v 0.1 2.6 -0.4
v 0 2.6 -0.7
v 0.1 2.6 -0.7
v 0.7 2.6 -0.8
v 0.8 2.6 -0.8
v 0.7 2.6 -0.9
v 0.8 2.6 -0.9
v 0.2 2.8 -0.3
v 0.8 2.8 -0.3
v 0.2 2.8 -0.8
v 0.8 2.8 -0.8

# faces
f 3/6/1 2/6/1 1/6/1
f 4/6/1 2/6/1 3/6/1
f 5/3/1 4/3/1 3/3/1
f 6/3/1 4/3/1 5/3/1
f 7/2/1 6/2/1 5/2/1
f 8/2/1 6/2/1 7/2/1
f 9/2/1 6/2/1 8/2/1
f 10/2/1 6/2/1 9/2/1
f 11/3/1 9/3/1 8/3/1
f 12/3/1 9/3/1 11/3/1
f 17/7/1 14/7/1 13/7/1
f 18/7/1 14/7/1 17/7/1
f 19/7/1 16/7/1 15/7/1
f 20/7/1 16/7/1 19/7/1
f 25/5/1 22/5/1 21/5/1
f 25/7/1 23/7/1 22/7/1
f 26/5/1 24/5/1 23/5/1
f 26/7/1 23/7/1 25/7/1
f 27/5/1 25/5/1 21/5/1
f 27/5/1 26/5/1 25/5/1
f 28/5/1 24/5/1 26/5/1
f 28/5/1 26/5/1 27/5/1
f 33/7/1 30/7/1 29/7/1
f 34/7/1 30/7/1 33/7/1
f 35/7/1 32/7/1 31/7/1
f 36/7/1 32/7/1 35/7/1
f 41/6/1 38/6/1 37/6/1
f 42/6/1 40/6/1 39/6/1
f 43/6/1 41/6/1 37/6/1
f 44/6/1 41/6/1 43/6/1
f 45/6/1 40/6/1 42/6/1
f 46/6/1 40/6/1 45/6/1
f 49/6/1 48/6/1 47/6/1
f 50/6/1 48/6/1 49/6/1
f 51/6/2 52/6/2 53/6/2
f 53/6/2 52/6/2 54/6/2
f 55/3/2 56/3/2 57/3/2
f 57/3/2 56/3/2 58/3/2
f 59/7/2 60/7/2 63/7/2
f 63/7/2 60/7/2 64/7/2
f 61/7/2 62/7/2 65/7/2
f 65/7/2 62/7/2 66/7/2
f 67/6/2 68/6/2 71/6/2
f 69/6/2 70/6/2 74/6/2
f 67/6/2 71/6/2 75/6/2
f 71/5/2 72/5/2 76/5/2
f 75/6/2 71/6/2 76/6/2
f 73/5/2 74/5/2 77/5/2
f 74/6/2 70/6/2 77/6/2
f 77/6/2 70/6/2 78/6/2
f 72/7/2 73/7/2 79/7/2
f 76/5/2 72/5/2 79/5/2
f 73/5/2 77/5/2 80/5/2
f 79/7/2 73/7/2 80/7/2
f 76/5/2 79/5/2 81/5/2
f 79/5/2 80/5/2 81/5/2
f 80/5/2 77/5/2 82/5/2
f 81/5/2 80/5/2 82/5/2
f 83/7/2 84/7/2 87/7/2
f 87/7/2 84/7/2 88/7/2
f 85/7/2 86/7/2 89/7/2
f 89/7/2 86/7/2 90/7/2
f 88/6/2 89/6/2 91/6/2
f 91/6/2 89/6/2 92/6/2
f 93/6/2 94/6/2 97/6/2
f 97/6/2 94/6/2 98/6/2
f 95/6/2 96/6/2 99/6/2
f 99/6/2 96/6/2 100/6/2
f 97/3/2 98/3/2 101/3/2
f 98/3/2 99/3/2 101/3/2
f 99/3/2 100/3/2 101/3/2
f 101/3/2 100/3/2 102/3/2
f 102/3/2 100/3/2 103/3/2
f 103/3/2 100/3/2 104/3/2
f 101/5/2 102/5/2 105/5/2
f 102/4/2 103/4/2 106/4/2
f 105/5/2 102/5/2 106/5/2
f 103/5/2 104/5/2 107/5/2
f 106/4/2 103/4/2 107/4/2
f 107/5/2 104/5/2 108/5/2
f 105/2/2 106/2/2 109/2/2
f 106/3/2 107/3/2 110/3/2
f 109/2/2 106/2/2 110/2/2
f 107/2/2 108/2/2 111/2/2
f 110/3/2 107/3/2 111/3/2
f 111/2/2 108/2/2 112/2/2
f 115/6/3 114/6/3 113/6/3
f 116/6/3 114/6/3 115/6/3
f 122/6/3 118/6/3 117/6/3
f 123/3/3 119/3/3 118/3/3
f 123/6/3 118/6/3 122/6/3
f 124/2/3 120/2/3 119/2/3
f 124/3/3 119/3/3 123/3/3
f 125/7/3 123/7/3 122/7/3
f 125/7/3 122/7/3 121/7/3
f 125/7/3 124/7/3 123/7/3
f 126/7/3 124/7/3 125/7/3
f 127/2/3 120/2/3 124/2/3
f 129/7/3 125/7/3 121/7/3
f 129/5/3 126/5/3 125/5/3
f 130/7/3 124/7/3 126/7/3
f 130/5/3 126/5/3 129/5/3
f 131/5/3 128/5/3 127/5/3
f 131/2/3 127/2/3 124/2/3
f 132/5/3 128/5/3 131/5/3
f 133/7/3 129/7/3 121/7/3
f 133/7/3 130/7/3 129/7/3
f 134/7/3 130/7/3 133/7/3
f 135/7/3 124/7/3 130/7/3
f 135/7/3 130/7/3 134/7/3
f 136/2/3 131/2/3 124/2/3
f 136/7/3 124/7/3 135/7/3
f 138/6/3 135/6/3 134/6/3
f 139/3/3 136/3/3 135/3/3
f 139/6/3 135/6/3 138/6/3
f 140/2/3 131/2/3 136/2/3
f 140/3/3 136/3/3 139/3/3
f 141/2/3 131/2/3 140/2/3
f 142/7/3 132/7/3 131/7/3
f 142/2/3 131/2/3 141/2/3
f 143/7/3 132/7/3 142/7/3
f 144/5/3 128/5/3 132/5/3
f 144/7/3 132/7/3 143/7/3
f 145/7/3 139/7/3 138/7/3
f 145/7/3 138/7/3 137/7/3
f 145/7/3 140/7/3 139/7/3
f 146/7/3 140/7/3 145/7/3
f 147/2/3 141/2/3 140/2/3
f 149/5/3 144/5/3 143/5/3
f 150/5/3 128/5/3 144/5/3
f 150/5/3 144/5/3 149/5/3
f 151/7/3 145/7/3 137/7/3
f 151/5/3 146/5/3 145/5/3
f 152/7/3 140/7/3 146/7/3
f 152/5/3 146/5/3 151/5/3
f 153/7/3 151/7/3 137/7/3
f 153/7/3 152/7/3 151/7/3
f 154/7/3 152/7/3 153/7/3
f 155/7/3 140/7/3 152/7/3
f 155/7/3 152/7/3 154/7/3
f 156/2/3 148/2/3 147/2/3
f 156/7/3 140/7/3 155/7/3
f 156/2/3 147/2/3 140/2/3
f 157/2/3 148/2/3 156/2/3
f 158/6/3 155/6/3 154/6/3
f 159/3/3 156/3/3 155/3/3
f 159/6/3 155/6/3 158/6/3
f 160/5/3 157/5/3 156/5/3
f 160/3/3 156/3/3 159/3/3
f 161/2/3 148/2/3 157/2/3
f 161/5/3 157/5/3 160/5/3
f 162/2/3 148/2/3 161/2/3
f 165/3/3 164/3/3 163/3/3
f 166/3/3 164/3/3 165/3/3
f 170/7/3 168/7/3 167/7/3
f 170/7/3 169/7/3 168/7/3
f 171/7/3 169/7/3 170/7/3
f 172/7/3 170/7/3 167/7/3
f 172/5/3 171/5/3 170/5/3
f 173/5/3 171/5/3 172/5/3
f 174/7/3 172/7/3 167/7/3
f 174/7/3 173/7/3 172/7/3
f 175/7/3 173/7/3 174/7/3
f 176/7/3 173/7/3 175/7/3
f 178/6/3 176/6/3 175/6/3
f 179/6/3 176/6/3 178/6/3
f 180/7/3 178/7/3 177/7/3
f 180/7/3 179/7/3 178/7/3
f 181/7/3 179/7/3 180/7/3
f 182/7/3 180/7/3 177/7/3
f 182/5/3 181/5/3 180/5/3
f 183/5/3 181/5/3 182/5/3
f 184/7/3 182/7/3 177/7/3
f 185/7/3 182/7/3 184/7/3
f 187/6/3 186/6/3 185/6/3
f 188/6/3 186/6/3 187/6/3
f 189/7/4 190/7/4 192/7/4
f 190/7/4 191/7/4 192/7/4
f 192/7/4 191/7/4 193/7/4
f 189/7/4 192/7/4 194/7/4
f 192/5/4 193/5/4 194/5/4
f 194/5/4 193/5/4 195/5/4
f 189/7/4 194/7/4 196/7/4
f 194/7/4 195/7/4 196/7/4
f 196/7/4 195/7/4 197/7/4
f 197/7/4 195/7/4 198/7/4
f 197/6/4 198/6/4 200/6/4
f 200/6/4 198/6/4 201/6/4
f 199/7/4 200/7/4 202/7/4
f 200/7/4 201/7/4 202/7/4
f 202/7/4 201/7/4 203/7/4
f 199/7/4 202/7/4 204/7/4
f 202/5/4 203/5/4 204/5/4
f 204/5/4 203/5/4 205/5/4
f 199/7/4 204/7/4 206/7/4
f 206/7/4 204/7/4 207/7/4
f 207/6/4 208/6/4 209/6/4
f 209/6/4 208/6/4 210/6/4
f 211/3/4 212/3/4 213/3/4
f 213/3/4 212/3/4 214/3/4
f 215/6/4 216/6/4 220/6/4
f 216/3/4 217/3/4 221/3/4
f 220/6/4 216/6/4 221/6/4
f 217/2/4 218/2/4 222/2/4
f 221/3/4 217/3/4 222/3/4
f 220/7/4 221/7/4 223/7/4
f 219/7/4 220/7/4 223/7/4
f 221/7/4 222/7/4 223/7/4
f 223/7/4 222/7/4 224/7/4
f 222/2/4 218/2/4 225/2/4
f 219/7/4 223/7/4 227/7/4
f 223/5/4 224/5/4 227/5/4
f 224/7/4 222/7/4 228/7/4
f 227/5/4 224/5/4 228/5/4
f 225/5/4 226/5/4 229/5/4
f 222/2/4 225/2/4 229/2/4
f 229/5/4 226/5/4 230/5/4
f 219/7/4 227/7/4 231/7/4
f 227/7/4 228/7/4 231/7/4
f 231/7/4 228/7/4 232/7/4
f 228/7/4 222/7/4 233/7/4
f 232/7/4 228/7/4 233/7/4
f 222/2/4 229/2/4 234/2/4
f 233/7/4 222/7/4 234/7/4
f 232/6/4 233/6/4 236/6/4
f 233/3/4 234/3/4 237/3/4
f 236/6/4 233/6/4 237/6/4
f 234/2/4 229/2/4 238/2/4
f 237/3/4 234/3/4 238/3/4
f 238/2/4 229/2/4 239/2/4
f 229/7/4 230/7/4 240/7/4
f 239/2/4 229/2/4 240/2/4
f 240/7/4 230/7/4 241/7/4
f 230/5/4 226/5/4 242/5/4
f 241/7/4 230/7/4 242/7/4
f 236/7/4 237/7/4 243/7/4
f 235/7/4 236/7/4 243/7/4
f 237/7/4 238/7/4 243/7/4
f 243/7/4 238/7/4 244/7/4
f 238/2/4 239/2/4 245/2/4
f 241/5/4 242/5/4 247/5/4
f 242/5/4 226/5/4 248/5/4
f 247/5/4 242/5/4 248/5/4
f 235/7/4 243/7/4 249/7/4
f 243/5/4 244/5/4 249/5/4
f 244/7/4 238/7/4 250/7/4
f 249/5/4 244/5/4 250/5/4
f 235/7/4 249/7/4 251/7/4
f 249/7/4 250/7/4 251/7/4
f 251/7/4 250/7/4 252/7/4
f 250/7/4 238/7/4 253/7/4
f 252/7/4 250/7/4 253/7/4
f 245/2/4 246/2/4 254/2/4
f 253/7/4 238/7/4 254/7/4
f 238/2/4 245/2/4 254/2/4
f 254/2/4 246/2/4 255/2/4
f 252/6/4 253/6/4 256/6/4
f 253/3/4 254/3/4 257/3/4
f 256/6/4 253/6/4 257/6/4
f 254/5/4 255/5/4 258/5/4
f 257/3/4 254/3/4 258/3/4
f 255/2/4 246/2/4 259/2/4
f 258/5/4 255/5/4 259/5/4
f 259/2/4 246/2/4 260/2/4
f 261/6/4 262/6/4 263/6/4
f 263/6/4 262/6/4 264/6/4
f 269/7/5 266/7/5 265/7/5
f 270/7/5 266/7/5 269/7/5
f 271/7/5 268/7/5 267/7/5
f 272/7/5 268/7/5 271/7/5
f 277/7/5 274/7/5 273/7/5
f 278/7/5 274/7/5 277/7/5
f 279/7/5 276/7/5 275/7/5
f 280/7/5 276/7/5 279/7/5
f 287/6/5 282/6/5 281/6/5
f 288/6/5 284/6/5 283/6/5
f 289/6/5 284/6/5 288/6/5
f 291/6/5 286/6/5 285/6/5
f 292/6/5 286/6/5 291/6/5
f 293/6/5 287/6/5 281/6/5
f 296/6/5 291/6/5 290/6/5
f 297/6/5 291/6/5 296/6/5
f 299/6/5 293/6/5 281/6/5
f 300/6/5 293/6/5 299/6/5
f 301/6/5 295/6/5 294/6/5
f 302/6/5 295/6/5 301/6/5
f 303/6/5 298/6/5 297/6/5
f 304/6/5 298/6/5 303/6/5
f 314/2/5 306/2/5 305/2/5
f 314/2/5 307/2/5 306/2/5
f 314/2/5 311/2/5 310/2/5
f 314/2/5 310/2/5 309/2/5
f 314/2/5 309/2/5 308/2/5
f 314/2/5 308/2/5 307/2/5
f 315/2/5 311/2/5 314/2/5
f 316/2/5 311/2/5 315/2/5
f 317/2/5 311/2/5 316/2/5
f 318/2/5 311/2/5 317/2/5
f 319/2/5 311/2/5 318/2/5
f 320/2/5 311/2/5 319/2/5
f 321/3/5 313/3/5 312/3/5
f 322/3/5 313/3/5 321/3/5
f 325/6/5 324/6/5 323/6/5
f 326/6/5 324/6/5 325/6/5
f 329/6/5 328/6/5 327/6/5
f 330/6/5 328/6/5 329/6/5
f 331/2/6 332/2/6 335/2/6
f 335/2/6 332/2/6 336/2/6
f 336/2/6 332/2/6 337/2/6
f 333/2/6 334/2/6 338/2/6
f 338/2/6 334/2/6 339/2/6
f 336/2/6 337/2/6 341/2/6
f 341/2/6 337/2/6 342/2/6
f 338/3/6 339/3/6 343/3/6
f 343/3/6 339/3/6 344/3/6
f 341/2/6 342/2/6 345/2/6
f 340/2/6 341/2/6 345/2/6
f 345/2/6 342/2/6 346/2/6
f 343/2/6 344/2/6 347/2/6
f 347/2/6 344/2/6 348/2/6
f 349/6/6 350/6/6 351/6/6
f 351/6/6 350/6/6 352/6/6
f 353/3/6 354/3/6 355/3/6
f 355/3/6 354/3/6 356/3/6
f 357/6/6 358/6/6 359/6/6
f 359/6/6 358/6/6 360/6/6
f 361/5/6 362/5/6 363/5/6
f 363/5/6 362/5/6 364/5/6
