# MagicaVoxel @ Ephtracy

# group
o 

# material
mtllib CARTRUCK.mtl
usemtl palette

# normals
vn -1 0 0
vn 1 0 0
vn 0 0 1
vn 0 0 -1
vn 0 -1 0
vn 0 1 0

# texcoords
vt 0.228516 0.5
vt 0.841797 0.5
vt 0.849609 0.5
vt 0.958984 0.5
vt 0.970703 0.5
vt 0.982422 0.5
vt 0.994141 0.5

# verts
v 0 2.3 -0.8
v 0 2.3 -1.8
v 0 2.4 -0.8
v 0 2.4 -1.8
v 0 3.1 -0.8
v 0 3.1 -1.8
v 0.2 2.1 -0.9
v 0.2 2.1 -1.7
v 0.2 2.3 -0.9
v 0.2 2.3 -1.7
v 0.4 2 -0.9
v 0.4 2 -1
v 0.4 2 -1.6
v 0.4 2 -1.7
v 0.4 2.1 -0.9
v 0.4 2.1 -1
v 0.4 2.1 -1.6
v 0.4 2.1 -1.7
v 1.4 2 -0.9
v 1.4 2 -1
v 1.4 2 -1.6
v 1.4 2 -1.7
v 1.4 2.1 -0.9
v 1.4 2.1 -1
v 1.4 2.1 -1.6
v 1.4 2.1 -1.7
v 1.7 2.1 -1.5
v 1.7 2.1 -1.6
v 1.7 2.2 -1.5
v 1.7 2.2 -1.6
v 2 2.1 -0.9
v 2 2.1 -1
v 2 2.1 -1.6
v 2 2.1 -1.7
v 2 2.2 -0.9
v 2 2.2 -1
v 2 2.2 -1.1
v 2 2.2 -1.5
v 2 2.2 -1.6
v 2 2.2 -1.7
v 2 2.3 -0.9
v 2 2.3 -1
v 2 2.3 -1.1
v 2 2.3 -1.5
v 2 2.3 -1.6
v 2 2.3 -1.7
v 2 2.8 -0.9
v 2 2.8 -1
v 2 2.8 -1.6
v 2 2.8 -1.7
v 2 3 -1
v 2 3 -1.6
v 2.1 2 -0.9
v 2.1 2 -1
v 2.1 2 -1.6
v 2.1 2 -1.7
v 2.1 2.1 -0.9
v 2.1 2.1 -1
v 2.1 2.1 -1.6
v 2.1 2.1 -1.7
v 2.4 2.3 -0.8
v 2.4 2.3 -0.9
v 2.4 2.3 -1.7
v 2.4 2.3 -1.8
v 2.4 2.5 -0.8
v 2.4 2.5 -0.9
v 2.4 2.5 -1.7
v 2.4 2.5 -1.8
v 0.7 2 -0.9
v 0.7 2 -1
v 0.7 2 -1.6
v 0.7 2 -1.7
v 0.7 2.1 -0.9
v 0.7 2.1 -1
v 0.7 2.1 -1.6
v 0.7 2.1 -1.7
v 1.4 2.1 -1.5
v 1.4 2.1 -1.6
v 1.4 2.2 -1.5
v 1.4 2.2 -1.6
v 1.7 2 -0.9
v 1.7 2 -1
v 1.7 2 -1.6
v 1.7 2 -1.7
v 1.7 2.1 -0.9
v 1.7 2.1 -1
v 1.7 2.1 -1.6
v 1.7 2.1 -1.7
v 1.9 2.1 -0.9
v 1.9 2.1 -1
v 1.9 2.1 -1.6
v 1.9 2.1 -1.7
v 1.9 2.2 -1
v 1.9 2.2 -1.1
v 1.9 2.2 -1.5
v 1.9 2.2 -1.6
v 1.9 2.3 -0.8
v 1.9 2.3 -0.9
v 1.9 2.3 -1.1
v 1.9 2.3 -1.5
v 1.9 2.3 -1.7
v 1.9 2.3 -1.8
v 1.9 2.4 -0.8
v 1.9 2.4 -1.1
v 1.9 2.4 -1.5
v 1.9 2.4 -1.8
v 1.9 3.1 -0.8
v 1.9 3.1 -1.8
v 2.2 2.9 -1
v 2.2 2.9 -1.6
v 2.2 3 -1
v 2.2 3 -1.6
v 2.3 2.8 -1
v 2.3 2.8 -1.6
v 2.3 2.9 -1
v 2.3 2.9 -1.6
v 2.4 2 -0.9
v 2.4 2 -1
v 2.4 2 -1.6
v 2.4 2 -1.7
v 2.4 2.1 -0.9
v 2.4 2.1 -1
v 2.4 2.1 -1.6
v 2.4 2.1 -1.7
v 2.5 2.3 -0.8
v 2.5 2.3 -0.9
v 2.5 2.3 -1.7
v 2.5 2.3 -1.8
v 2.5 2.5 -0.8
v 2.5 2.5 -0.9
v 2.5 2.5 -1.7
v 2.5 2.5 -1.8
v 2.6 2.1 -0.9
v 2.6 2.1 -1.7
v 2.6 2.2 -0.9
v 2.6 2.2 -1
v 2.6 2.2 -1.1
v 2.6 2.2 -1.5
v 2.6 2.2 -1.6
v 2.6 2.2 -1.7
v 2.6 2.3 -0.9
v 2.6 2.3 -1
v 2.6 2.3 -1.1
v 2.6 2.3 -1.5
v 2.6 2.3 -1.6
v 2.6 2.3 -1.7
v 2.6 2.5 -0.9
v 2.6 2.5 -1.7
v 2.6 2.7 -0.9
v 2.6 2.7 -1.7
v 2.6 2.8 -0.9
v 2.6 2.8 -1.7
v 0 2.3 -0.8
v 0 2.4 -0.8
v 0 3.1 -0.8
v 1.9 2.3 -0.8
v 1.9 2.4 -0.8
v 1.9 3.1 -0.8
v 2.4 2.3 -0.8
v 2.4 2.5 -0.8
v 2.5 2.3 -0.8
v 2.5 2.5 -0.8
v 0.2 2.1 -0.9
v 0.2 2.3 -0.9
v 0.4 2 -0.9
v 0.4 2.1 -0.9
v 0.4 2.3 -0.9
v 0.5 2.1 -0.9
v 0.5 2.2 -0.9
v 0.6 2.1 -0.9
v 0.6 2.2 -0.9
v 0.7 2 -0.9
v 0.7 2.1 -0.9
v 0.7 2.3 -0.9
v 1.4 2 -0.9
v 1.4 2.1 -0.9
v 1.4 2.3 -0.9
v 1.5 2.1 -0.9
v 1.5 2.2 -0.9
v 1.6 2.1 -0.9
v 1.6 2.2 -0.9
v 1.7 2 -0.9
v 1.7 2.1 -0.9
v 1.7 2.3 -0.9
v 1.9 2.1 -0.9
v 1.9 2.3 -0.9
v 2 2.1 -0.9
v 2 2.2 -0.9
v 2 2.3 -0.9
v 2 2.8 -0.9
v 2.1 2 -0.9
v 2.1 2.1 -0.9
v 2.1 2.2 -0.9
v 2.1 2.3 -0.9
v 2.2 2.1 -0.9
v 2.2 2.2 -0.9
v 2.3 2.1 -0.9
v 2.3 2.2 -0.9
v 2.3 2.5 -0.9
v 2.3 2.7 -0.9
v 2.4 2 -0.9
v 2.4 2.1 -0.9
v 2.4 2.2 -0.9
v 2.4 2.3 -0.9
v 2.4 2.5 -0.9
v 2.5 2.3 -0.9
v 2.5 2.5 -0.9
v 2.6 2.1 -0.9
v 2.6 2.2 -0.9
v 2.6 2.3 -0.9
v 2.6 2.5 -0.9
v 2.6 2.7 -0.9
v 2.6 2.8 -0.9
v 1.9 2.1 -1
v 1.9 2.2 -1
v 2 2.1 -1
v 2 2.2 -1
v 2 2.8 -1
v 2 3 -1
v 2.2 2.9 -1
v 2.2 3 -1
v 2.3 2.8 -1
v 2.3 2.9 -1
v 1.9 2.2 -1.1
v 1.9 2.3 -1.1
v 2 2.2 -1.1
v 2 2.3 -1.1
v 0.4 2 -1.6
v 0.4 2.1 -1.6
v 0.7 2 -1.6
v 0.7 2.1 -1.6
v 1.4 2 -1.6
v 1.4 2.1 -1.6
v 1.4 2.2 -1.6
v 1.5 2.1 -1.6
v 1.5 2.2 -1.6
v 1.6 2.1 -1.6
v 1.6 2.2 -1.6
v 1.7 2 -1.6
v 1.7 2.1 -1.6
v 1.7 2.2 -1.6
v 2.1 2 -1.6
v 2.1 2.1 -1.6
v 2.4 2 -1.6
v 2.4 2.1 -1.6
v 0.4 2 -1
v 0.4 2.1 -1
v 0.7 2 -1
v 0.7 2.1 -1
v 1.4 2 -1
v 1.4 2.1 -1
v 1.7 2 -1
v 1.7 2.1 -1
v 2.1 2 -1
v 2.1 2.1 -1
v 2.4 2 -1
v 2.4 2.1 -1
v 1.4 2.1 -1.5
v 1.4 2.2 -1.5
v 1.7 2.1 -1.5
v 1.7 2.2 -1.5
v 1.9 2.2 -1.5
v 1.9 2.3 -1.5
v 2 2.2 -1.5
v 2 2.3 -1.5
v 1.9 2.1 -1.6
v 1.9 2.2 -1.6
v 2 2.1 -1.6
v 2 2.2 -1.6
v 2 2.8 -1.6
v 2 3 -1.6
v 2.2 2.9 -1.6
v 2.2 3 -1.6
v 2.3 2.8 -1.6
v 2.3 2.9 -1.6
v 0.2 2.1 -1.7
v 0.2 2.3 -1.7
v 0.4 2 -1.7
v 0.4 2.1 -1.7
v 0.4 2.3 -1.7
v 0.5 2.1 -1.7
v 0.5 2.2 -1.7
v 0.6 2.1 -1.7
v 0.6 2.2 -1.7
v 0.7 2 -1.7
v 0.7 2.1 -1.7
v 0.7 2.3 -1.7
v 1.4 2 -1.7
v 1.4 2.1 -1.7
v 1.4 2.3 -1.7
v 1.5 2.1 -1.7
v 1.5 2.2 -1.7
v 1.6 2.1 -1.7
v 1.6 2.2 -1.7
v 1.7 2 -1.7
v 1.7 2.1 -1.7
v 1.7 2.3 -1.7
v 1.9 2.1 -1.7
v 1.9 2.3 -1.7
v 2 2.1 -1.7
v 2 2.2 -1.7
v 2 2.3 -1.7
v 2 2.8 -1.7
v 2.1 2 -1.7
v 2.1 2.1 -1.7
v 2.1 2.2 -1.7
v 2.1 2.3 -1.7
v 2.2 2.1 -1.7
v 2.2 2.2 -1.7
v 2.3 2.1 -1.7
v 2.3 2.2 -1.7
v 2.3 2.5 -1.7
v 2.3 2.7 -1.7
v 2.4 2 -1.7
v 2.4 2.1 -1.7
v 2.4 2.2 -1.7
v 2.4 2.3 -1.7
v 2.4 2.5 -1.7
v 2.5 2.3 -1.7
v 2.5 2.5 -1.7
v 2.6 2.1 -1.7
v 2.6 2.2 -1.7
v 2.6 2.3 -1.7
v 2.6 2.5 -1.7
v 2.6 2.7 -1.7
v 2.6 2.8 -1.7
v 0 2.3 -1.8
v 0 2.4 -1.8
v 0 3.1 -1.8
v 1.9 2.3 -1.8
v 1.9 2.4 -1.8
v 1.9 3.1 -1.8
v 2.4 2.3 -1.8
v 2.4 2.5 -1.8
v 2.5 2.3 -1.8
v 2.5 2.5 -1.8
v 0.4 2 -0.9
v 0.7 2 -0.9
v 1.4 2 -0.9
v 1.7 2 -0.9
v 2.1 2 -0.9
v 2.4 2 -0.9
v 0.4 2 -1
v 0.7 2 -1
v 1.4 2 -1
v 1.7 2 -1
v 2.1 2 -1
v 2.4 2 -1
v 0.4 2 -1.6
v 0.7 2 -1.6
v 1.4 2 -1.6
v 1.7 2 -1.6
v 2.1 2 -1.6
v 2.4 2 -1.6
v 0.4 2 -1.7
v 0.7 2 -1.7
v 1.4 2 -1.7
v 1.7 2 -1.7
v 2.1 2 -1.7
v 2.4 2 -1.7
v 0.2 2.1 -0.9
v 0.4 2.1 -0.9
v 0.7 2.1 -0.9
v 1.4 2.1 -0.9
v 1.7 2.1 -0.9
v 1.9 2.1 -0.9
v 2 2.1 -0.9
v 2.1 2.1 -0.9
v 2.4 2.1 -0.9
v 2.6 2.1 -0.9
v 0.3 2.1 -1
v 0.4 2.1 -1
v 0.7 2.1 -1
v 1.4 2.1 -1
v 1.7 2.1 -1
v 1.9 2.1 -1
v 2 2.1 -1
v 2.1 2.1 -1
v 2.4 2.1 -1
v 2.5 2.1 -1
v 1.4 2.1 -1.5
v 1.7 2.1 -1.5
v 0.3 2.1 -1.6
v 0.4 2.1 -1.6
v 0.7 2.1 -1.6
v 1.4 2.1 -1.6
v 1.7 2.1 -1.6
v 1.9 2.1 -1.6
v 2 2.1 -1.6
v 2.1 2.1 -1.6
v 2.4 2.1 -1.6
v 2.5 2.1 -1.6
v 0.2 2.1 -1.7
v 0.4 2.1 -1.7
v 0.7 2.1 -1.7
v 1.4 2.1 -1.7
v 1.7 2.1 -1.7
v 1.9 2.1 -1.7
v 2 2.1 -1.7
v 2.1 2.1 -1.7
v 2.4 2.1 -1.7
v 2.6 2.1 -1.7
v 1.4 2.2 -1.5
v 1.7 2.2 -1.5
v 1.4 2.2 -1.6
v 1.5 2.2 -1.6
v 1.6 2.2 -1.6
v 1.7 2.2 -1.6
v 0 2.3 -0.8
v 1.9 2.3 -0.8
v 2.4 2.3 -0.8
v 2.5 2.3 -0.8
v 0.1 2.3 -0.9
v 0.2 2.3 -0.9
v 0.4 2.3 -0.9
v 0.7 2.3 -0.9
v 1.4 2.3 -0.9
v 1.7 2.3 -0.9
v 1.9 2.3 -0.9
v 2.4 2.3 -0.9
v 2.5 2.3 -0.9
v 0.1 2.3 -1.7
v 0.2 2.3 -1.7
v 0.4 2.3 -1.7
v 0.7 2.3 -1.7
v 1.4 2.3 -1.7
v 1.7 2.3 -1.7
v 1.9 2.3 -1.7
v 2.4 2.3 -1.7
v 2.5 2.3 -1.7
v 0 2.3 -1.8
v 1.9 2.3 -1.8
v 2.4 2.3 -1.8
v 2.5 2.3 -1.8
v 1.9 2.2 -1
v 2 2.2 -1
v 1.9 2.2 -1.1
v 2 2.2 -1.1
v 1.9 2.2 -1.5
v 2 2.2 -1.5
v 1.9 2.2 -1.6
v 2 2.2 -1.6
v 1.9 2.3 -1.1
v 2 2.3 -1.1
v 1.9 2.3 -1.5
v 2 2.3 -1.5
v 2.4 2.5 -0.8
v 2.5 2.5 -0.8
v 2.4 2.5 -0.9
v 2.5 2.5 -0.9
v 2.4 2.5 -1.7
v 2.5 2.5 -1.7
v 2.4 2.5 -1.8
v 2.5 2.5 -1.8
v 2 2.8 -0.9
v 2.6 2.8 -0.9
v 2 2.8 -1
v 2.3 2.8 -1
v 2 2.8 -1.6
v 2.3 2.8 -1.6
v 2 2.8 -1.7
v 2.6 2.8 -1.7
v 2.2 2.9 -1
v 2.3 2.9 -1
v 2.2 2.9 -1.6
v 2.3 2.9 -1.6
v 2 3 -1
v 2.2 3 -1
v 2 3 -1.6
v 2.2 3 -1.6
v 0 3.1 -0.8
v 1.9 3.1 -0.8
v 0 3.1 -1.8
v 1.9 3.1 -1.8

# faces
f 3/5/1 2/5/1 1/5/1
f 4/5/1 2/5/1 3/5/1
f 5/4/1 4/4/1 3/4/1
f 6/4/1 4/4/1 5/4/1
f 9/6/1 8/6/1 7/6/1
f 10/6/1 8/6/1 9/6/1
f 15/7/1 12/7/1 11/7/1
f 16/7/1 12/7/1 15/7/1
f 17/7/1 14/7/1 13/7/1
f 18/7/1 14/7/1 17/7/1
f 23/7/1 20/7/1 19/7/1
f 24/7/1 20/7/1 23/7/1
f 25/7/1 22/7/1 21/7/1
f 26/7/1 22/7/1 25/7/1
f 29/4/1 28/4/1 27/4/1
f 30/4/1 28/4/1 29/4/1
f 35/6/1 32/6/1 31/6/1
f 36/6/1 32/6/1 35/6/1
f 39/6/1 34/6/1 33/6/1
f 40/6/1 34/6/1 39/6/1
f 41/3/1 36/3/1 35/3/1
f 42/4/1 37/4/1 36/4/1
f 42/3/1 36/3/1 41/3/1
f 43/4/1 37/4/1 42/4/1
f 44/4/1 39/4/1 38/4/1
f 45/3/1 40/3/1 39/3/1
f 45/4/1 39/4/1 44/4/1
f 46/3/1 40/3/1 45/3/1
f 47/2/1 42/2/1 41/2/1
f 48/4/1 43/4/1 42/4/1
f 48/2/1 42/2/1 47/2/1
f 48/4/1 44/4/1 43/4/1
f 48/4/1 45/4/1 44/4/1
f 49/2/1 46/2/1 45/2/1
f 49/4/1 45/4/1 48/4/1
f 50/2/1 46/2/1 49/2/1
f 51/4/1 49/4/1 48/4/1
f 52/4/1 49/4/1 51/4/1
f 57/7/1 54/7/1 53/7/1
f 58/7/1 54/7/1 57/7/1
f 59/7/1 56/7/1 55/7/1
f 60/7/1 56/7/1 59/7/1
f 65/2/1 62/2/1 61/2/1
f 66/2/1 62/2/1 65/2/1
f 67/2/1 64/2/1 63/2/1
f 68/2/1 64/2/1 67/2/1
f 69/7/2 70/7/2 73/7/2
f 73/7/2 70/7/2 74/7/2
f 71/7/2 72/7/2 75/7/2
f 75/7/2 72/7/2 76/7/2
f 77/4/2 78/4/2 79/4/2
f 79/4/2 78/4/2 80/4/2
f 81/7/2 82/7/2 85/7/2
f 85/7/2 82/7/2 86/7/2
f 83/7/2 84/7/2 87/7/2
f 87/7/2 84/7/2 88/7/2
f 89/6/2 90/6/2 93/6/2
f 91/6/2 92/6/2 96/6/2
f 93/6/2 94/6/2 98/6/2
f 89/6/2 93/6/2 98/6/2
f 98/6/2 94/6/2 99/6/2
f 95/6/2 96/6/2 100/6/2
f 96/6/2 92/6/2 101/6/2
f 100/6/2 96/6/2 101/6/2
f 98/5/2 99/5/2 103/5/2
f 97/5/2 98/5/2 103/5/2
f 99/4/2 100/4/2 104/4/2
f 103/5/2 99/5/2 104/5/2
f 101/5/2 102/5/2 105/5/2
f 104/4/2 100/4/2 105/4/2
f 100/5/2 101/5/2 105/5/2
f 105/5/2 102/5/2 106/5/2
f 103/4/2 104/4/2 107/4/2
f 104/4/2 105/4/2 107/4/2
f 105/4/2 106/4/2 107/4/2
f 107/4/2 106/4/2 108/4/2
f 109/4/2 110/4/2 111/4/2
f 111/4/2 110/4/2 112/4/2
f 113/4/2 114/4/2 115/4/2
f 115/4/2 114/4/2 116/4/2
f 117/7/2 118/7/2 121/7/2
f 121/7/2 118/7/2 122/7/2
f 119/7/2 120/7/2 123/7/2
f 123/7/2 120/7/2 124/7/2
f 125/2/2 126/2/2 129/2/2
f 129/2/2 126/2/2 130/2/2
f 127/2/2 128/2/2 131/2/2
f 131/2/2 128/2/2 132/2/2
f 133/6/2 134/6/2 135/6/2
f 135/6/2 134/6/2 136/6/2
f 136/6/2 134/6/2 137/6/2
f 137/6/2 134/6/2 138/6/2
f 138/6/2 134/6/2 139/6/2
f 139/6/2 134/6/2 140/6/2
f 135/3/2 136/3/2 141/3/2
f 136/4/2 137/4/2 142/4/2
f 141/3/2 136/3/2 142/3/2
f 137/3/2 138/3/2 143/3/2
f 142/4/2 137/4/2 143/4/2
f 138/4/2 139/4/2 144/4/2
f 143/3/2 138/3/2 144/3/2
f 139/3/2 140/3/2 145/3/2
f 144/4/2 139/4/2 145/4/2
f 145/3/2 140/3/2 146/3/2
f 141/2/2 142/2/2 147/2/2
f 142/2/2 143/2/2 147/2/2
f 145/2/2 146/2/2 147/2/2
f 144/2/2 145/2/2 147/2/2
f 143/2/2 144/2/2 147/2/2
f 147/2/2 146/2/2 148/2/2
f 147/7/2 148/7/2 149/7/2
f 149/7/2 148/7/2 150/7/2
f 149/2/2 150/2/2 151/2/2
f 151/2/2 150/2/2 152/2/2
f 156/5/3 154/5/3 153/5/3
f 157/4/3 155/4/3 154/4/3
f 157/5/3 154/5/3 156/5/3
f 158/4/3 155/4/3 157/4/3
f 161/2/3 160/2/3 159/2/3
f 162/2/3 160/2/3 161/2/3
f 166/6/3 164/6/3 163/6/3
f 167/6/3 164/6/3 166/6/3
f 168/7/3 166/7/3 165/7/3
f 168/7/3 167/7/3 166/7/3
f 169/7/3 167/7/3 168/7/3
f 170/7/3 168/7/3 165/7/3
f 170/4/3 169/4/3 168/4/3
f 171/7/3 167/7/3 169/7/3
f 171/4/3 169/4/3 170/4/3
f 172/7/3 170/7/3 165/7/3
f 172/7/3 171/7/3 170/7/3
f 173/7/3 171/7/3 172/7/3
f 174/7/3 167/7/3 171/7/3
f 174/7/3 171/7/3 173/7/3
f 176/6/3 174/6/3 173/6/3
f 177/6/3 174/6/3 176/6/3
f 178/7/3 176/7/3 175/7/3
f 178/7/3 177/7/3 176/7/3
f 179/7/3 177/7/3 178/7/3
f 180/7/3 178/7/3 175/7/3
f 180/4/3 179/4/3 178/4/3
f 181/7/3 177/7/3 179/7/3
f 181/4/3 179/4/3 180/4/3
f 182/7/3 180/7/3 175/7/3
f 182/7/3 181/7/3 180/7/3
f 183/7/3 181/7/3 182/7/3
f 184/7/3 177/7/3 181/7/3
f 184/7/3 181/7/3 183/7/3
f 185/6/3 184/6/3 183/6/3
f 186/6/3 184/6/3 185/6/3
f 192/6/3 188/6/3 187/6/3
f 193/3/3 189/3/3 188/3/3
f 193/6/3 188/6/3 192/6/3
f 194/2/3 190/2/3 189/2/3
f 194/3/3 189/3/3 193/3/3
f 195/7/3 192/7/3 191/7/3
f 195/7/3 193/7/3 192/7/3
f 195/7/3 194/7/3 193/7/3
f 196/7/3 194/7/3 195/7/3
f 197/7/3 195/7/3 191/7/3
f 197/4/3 196/4/3 195/4/3
f 198/7/3 194/7/3 196/7/3
f 198/4/3 196/4/3 197/4/3
f 199/2/3 190/2/3 194/2/3
f 200/2/3 190/2/3 199/2/3
f 201/7/3 197/7/3 191/7/3
f 201/7/3 198/7/3 197/7/3
f 202/7/3 198/7/3 201/7/3
f 203/7/3 194/7/3 198/7/3
f 203/7/3 198/7/3 202/7/3
f 204/2/3 199/2/3 194/2/3
f 204/7/3 194/7/3 203/7/3
f 205/7/3 200/7/3 199/7/3
f 205/2/3 199/2/3 204/2/3
f 206/3/3 204/3/3 203/3/3
f 207/7/3 200/7/3 205/7/3
f 208/6/3 203/6/3 202/6/3
f 209/3/3 206/3/3 203/3/3
f 209/6/3 203/6/3 208/6/3
f 210/2/3 207/2/3 206/2/3
f 210/3/3 206/3/3 209/3/3
f 211/7/3 200/7/3 207/7/3
f 211/2/3 207/2/3 210/2/3
f 212/2/3 190/2/3 200/2/3
f 212/7/3 200/7/3 211/7/3
f 213/2/3 190/2/3 212/2/3
f 216/6/3 215/6/3 214/6/3
f 217/6/3 215/6/3 216/6/3
f 220/4/3 219/4/3 218/4/3
f 221/4/3 219/4/3 220/4/3
f 222/4/3 220/4/3 218/4/3
f 223/4/3 220/4/3 222/4/3
f 226/6/3 225/6/3 224/6/3
f 227/6/3 225/6/3 226/6/3
f 230/7/3 229/7/3 228/7/3
f 231/7/3 229/7/3 230/7/3
f 235/7/3 233/7/3 232/7/3
f 235/7/3 234/7/3 233/7/3
f 236/7/3 234/7/3 235/7/3
f 237/7/3 235/7/3 232/7/3
f 237/4/3 236/4/3 235/4/3
f 238/4/3 236/4/3 237/4/3
f 239/7/3 237/7/3 232/7/3
f 239/7/3 238/7/3 237/7/3
f 240/7/3 238/7/3 239/7/3
f 241/7/3 238/7/3 240/7/3
f 244/7/3 243/7/3 242/7/3
f 245/7/3 243/7/3 244/7/3
f 246/7/4 247/7/4 248/7/4
f 248/7/4 247/7/4 249/7/4
f 250/7/4 251/7/4 252/7/4
f 252/7/4 251/7/4 253/7/4
f 254/7/4 255/7/4 256/7/4
f 256/7/4 255/7/4 257/7/4
f 258/4/4 259/4/4 260/4/4
f 260/4/4 259/4/4 261/4/4
f 262/6/4 263/6/4 264/6/4
f 264/6/4 263/6/4 265/6/4
f 266/6/4 267/6/4 268/6/4
f 268/6/4 267/6/4 269/6/4
f 270/4/4 271/4/4 272/4/4
f 272/4/4 271/4/4 273/4/4
f 270/4/4 272/4/4 274/4/4
f 274/4/4 272/4/4 275/4/4
f 276/6/4 277/6/4 279/6/4
f 279/6/4 277/6/4 280/6/4
f 278/7/4 279/7/4 281/7/4
f 279/7/4 280/7/4 281/7/4
f 281/7/4 280/7/4 282/7/4
f 278/7/4 281/7/4 283/7/4
f 281/4/4 282/4/4 283/4/4
f 282/7/4 280/7/4 284/7/4
f 283/4/4 282/4/4 284/4/4
f 278/7/4 283/7/4 285/7/4
f 283/7/4 284/7/4 285/7/4
f 285/7/4 284/7/4 286/7/4
f 284/7/4 280/7/4 287/7/4
f 286/7/4 284/7/4 287/7/4
f 286/6/4 287/6/4 289/6/4
f 289/6/4 287/6/4 290/6/4
f 288/7/4 289/7/4 291/7/4
f 289/7/4 290/7/4 291/7/4
f 291/7/4 290/7/4 292/7/4
f 288/7/4 291/7/4 293/7/4
f 291/4/4 292/4/4 293/4/4
f 292/7/4 290/7/4 294/7/4
f 293/4/4 292/4/4 294/4/4
f 288/7/4 293/7/4 295/7/4
f 293/7/4 294/7/4 295/7/4
f 295/7/4 294/7/4 296/7/4
f 294/7/4 290/7/4 297/7/4
f 296/7/4 294/7/4 297/7/4
f 296/6/4 297/6/4 298/6/4
f 298/6/4 297/6/4 299/6/4
f 300/6/4 301/6/4 305/6/4
f 301/3/4 302/3/4 306/3/4
f 305/6/4 301/6/4 306/6/4
f 302/2/4 303/2/4 307/2/4
f 306/3/4 302/3/4 307/3/4
f 304/7/4 305/7/4 308/7/4
f 305/7/4 306/7/4 308/7/4
f 306/7/4 307/7/4 308/7/4
f 308/7/4 307/7/4 309/7/4
f 304/7/4 308/7/4 310/7/4
f 308/4/4 309/4/4 310/4/4
f 309/7/4 307/7/4 311/7/4
f 310/4/4 309/4/4 311/4/4
f 307/2/4 303/2/4 312/2/4
f 312/2/4 303/2/4 313/2/4
f 304/7/4 310/7/4 314/7/4
f 310/7/4 311/7/4 314/7/4
f 314/7/4 311/7/4 315/7/4
f 311/7/4 307/7/4 316/7/4
f 315/7/4 311/7/4 316/7/4
f 307/2/4 312/2/4 317/2/4
f 316/7/4 307/7/4 317/7/4
f 312/7/4 313/7/4 318/7/4
f 317/2/4 312/2/4 318/2/4
f 316/3/4 317/3/4 319/3/4
f 318/7/4 313/7/4 320/7/4
f 315/6/4 316/6/4 321/6/4
f 316/3/4 319/3/4 322/3/4
f 321/6/4 316/6/4 322/6/4
f 319/2/4 320/2/4 323/2/4
f 322/3/4 319/3/4 323/3/4
f 320/7/4 313/7/4 324/7/4
f 323/2/4 320/2/4 324/2/4
f 313/2/4 303/2/4 325/2/4
f 324/7/4 313/7/4 325/7/4
f 325/2/4 303/2/4 326/2/4
f 327/5/4 328/5/4 330/5/4
f 328/4/4 329/4/4 331/4/4
f 330/5/4 328/5/4 331/5/4
f 331/4/4 329/4/4 332/4/4
f 333/2/4 334/2/4 335/2/4
f 335/2/4 334/2/4 336/2/4
f 343/7/5 338/7/5 337/7/5
f 344/7/5 338/7/5 343/7/5
f 345/7/5 340/7/5 339/7/5
f 346/7/5 340/7/5 345/7/5
f 347/7/5 342/7/5 341/7/5
f 348/7/5 342/7/5 347/7/5
f 355/7/5 350/7/5 349/7/5
f 356/7/5 350/7/5 355/7/5
f 357/7/5 352/7/5 351/7/5
f 358/7/5 352/7/5 357/7/5
f 359/7/5 354/7/5 353/7/5
f 360/7/5 354/7/5 359/7/5
f 371/6/5 362/6/5 361/6/5
f 372/6/5 362/6/5 371/6/5
f 373/6/5 364/6/5 363/6/5
f 374/6/5 364/6/5 373/6/5
f 375/6/5 366/6/5 365/6/5
f 376/6/5 366/6/5 375/6/5
f 377/6/5 368/6/5 367/6/5
f 378/6/5 368/6/5 377/6/5
f 379/6/5 370/6/5 369/6/5
f 380/6/5 370/6/5 379/6/5
f 381/4/5 372/4/5 371/4/5
f 381/4/5 374/4/5 373/4/5
f 381/4/5 376/4/5 375/4/5
f 381/4/5 373/4/5 372/4/5
f 381/4/5 375/4/5 374/4/5
f 382/4/5 376/4/5 381/4/5
f 383/6/5 371/6/5 361/6/5
f 383/4/5 381/4/5 371/4/5
f 384/4/5 381/4/5 383/4/5
f 385/4/5 381/4/5 384/4/5
f 386/4/5 381/4/5 385/4/5
f 387/4/5 376/4/5 382/4/5
f 388/6/5 377/6/5 376/6/5
f 388/4/5 376/4/5 387/4/5
f 389/4/5 378/4/5 377/4/5
f 389/6/5 377/6/5 388/6/5
f 389/4/5 380/4/5 379/4/5
f 389/4/5 379/4/5 378/4/5
f 390/4/5 380/4/5 389/4/5
f 391/4/5 380/4/5 390/4/5
f 392/6/5 370/6/5 380/6/5
f 392/4/5 380/4/5 391/4/5
f 393/6/5 384/6/5 383/6/5
f 393/6/5 383/6/5 361/6/5
f 394/6/5 384/6/5 393/6/5
f 395/6/5 386/6/5 385/6/5
f 396/6/5 386/6/5 395/6/5
f 397/6/5 388/6/5 387/6/5
f 398/6/5 388/6/5 397/6/5
f 399/6/5 390/6/5 389/6/5
f 400/6/5 390/6/5 399/6/5
f 401/6/5 392/6/5 391/6/5
f 402/6/5 370/6/5 392/6/5
f 402/6/5 392/6/5 401/6/5
f 405/7/5 404/7/5 403/7/5
f 406/7/5 404/7/5 405/7/5
f 407/7/5 404/7/5 406/7/5
f 408/7/5 404/7/5 407/7/5
f 413/5/5 410/5/5 409/5/5
f 414/5/5 410/5/5 413/5/5
f 415/5/5 410/5/5 414/5/5
f 416/5/5 410/5/5 415/5/5
f 417/5/5 410/5/5 416/5/5
f 418/5/5 410/5/5 417/5/5
f 419/5/5 410/5/5 418/5/5
f 420/2/5 412/2/5 411/2/5
f 421/2/5 412/2/5 420/2/5
f 422/5/5 413/5/5 409/5/5
f 422/4/5 414/4/5 413/4/5
f 423/4/5 414/4/5 422/4/5
f 431/5/5 422/5/5 409/5/5
f 431/5/5 423/5/5 422/5/5
f 431/5/5 428/5/5 427/5/5
f 431/5/5 427/5/5 426/5/5
f 431/5/5 426/5/5 425/5/5
f 431/5/5 425/5/5 424/5/5
f 431/5/5 424/5/5 423/5/5
f 432/5/5 428/5/5 431/5/5
f 433/2/5 430/2/5 429/2/5
f 434/2/5 430/2/5 433/2/5
f 435/6/6 436/6/6 437/6/6
f 437/6/6 436/6/6 438/6/6
f 439/6/6 440/6/6 441/6/6
f 441/6/6 440/6/6 442/6/6
f 443/6/6 444/6/6 445/6/6
f 445/6/6 444/6/6 446/6/6
f 447/2/6 448/2/6 449/2/6
f 449/2/6 448/2/6 450/2/6
f 451/2/6 452/2/6 453/2/6
f 453/2/6 452/2/6 454/2/6
f 455/2/6 456/2/6 457/2/6
f 457/2/6 456/2/6 458/2/6
f 458/2/6 456/2/6 460/2/6
f 459/2/6 460/2/6 461/2/6
f 460/2/6 456/2/6 462/2/6
f 461/2/6 460/2/6 462/2/6
f 463/4/6 464/4/6 465/4/6
f 465/4/6 464/4/6 466/4/6
f 467/4/6 468/4/6 469/4/6
f 469/4/6 468/4/6 470/4/6
f 471/4/6 472/4/6 473/4/6
f 473/4/6 472/4/6 474/4/6
