# MagicaVoxel @ Ephtracy

# group
o 

# material
mtllib small_car.mtl
usemtl palette

# normals
vn -1 0 0
vn 1 0 0
vn 0 0 1
vn 0 0 -1
vn 0 -1 0
vn 0 1 0

# texcoords
vt 0.306641 0.5
vt 0.330078 0.5
vt 0.353516 0.5
vt 0.958984 0.5
vt 0.966797 0.5
vt 0.982422 0.5
vt 0.994141 0.5

# verts
v 0.8 3.9 -1.5
v 0.8 3.9 -1.7
v 0.8 4.2 -1.5
v 0.8 4.2 -1.7
v 1 2 -1.2
v 1 2 -1.8
v 1 2 -2.2
v 1 2 -2.8
v 1 2.2 -1.4
v 1 2.2 -1.6
v 1 2.2 -2.4
v 1 2.2 -2.6
v 1 2.5 -0.8
v 1 2.5 -1.2
v 1 2.5 -1.4
v 1 2.5 -1.6
v 1 2.5 -1.8
v 1 2.5 -2.2
v 1 2.5 -2.4
v 1 2.5 -2.6
v 1 2.5 -2.8
v 1 2.5 -3.2
v 1 2.7 -0.8
v 1 2.7 -1.2
v 1 2.7 -1.8
v 1 2.7 -2.2
v 1 2.7 -2.8
v 1 2.7 -3.2
v 1 2.8 -1.2
v 1 2.8 -1.8
v 1 2.8 -2.2
v 1 2.8 -2.8
v 1 2.9 -0.8
v 1 2.9 -3.2
v 1 3.2 -0.8
v 1 3.2 -1.1
v 1 3.5 -0.8
v 1 3.5 -1.1
v 1 3.9 -1.5
v 1 3.9 -1.7
v 1 4 -0.8
v 1 4 -1.5
v 1 4 -1.7
v 1 4 -1.9
v 1 4 -2.5
v 1 4 -2.9
v 1 4 -3.2
v 1 4.2 -1.6
v 1 4.2 -1.7
v 1 4.5 -1.9
v 1 4.5 -2.5
v 1 4.8 -1.6
v 1 4.8 -2.9
v 1.5 2.4 -1.6
v 1.5 2.4 -1.7
v 1.5 2.5 -1.6
v 1.5 2.5 -1.7
v 2.4 2 -1.2
v 2.4 2 -1.8
v 2.4 2 -2.2
v 2.4 2 -2.8
v 2.4 2.2 -1.4
v 2.4 2.2 -1.6
v 2.4 2.2 -2.4
v 2.4 2.2 -2.6
v 2.4 2.4 -1.4
v 2.4 2.4 -1.6
v 2.4 2.4 -2.4
v 2.4 2.4 -2.6
v 2.4 2.5 -1.2
v 2.4 2.5 -1.8
v 2.4 2.5 -2.2
v 2.4 2.5 -2.8
v 3 4 -1.5
v 3 4 -1.6
v 3 4.2 -1.5
v 3 4.2 -1.6
v 1 4 -1.5
v 1 4 -1.6
v 1 4.2 -1.5
v 1 4.2 -1.6
v 1.4 2.4 -1.6
v 1.4 2.4 -1.7
v 1.4 2.5 -1.6
v 1.4 2.5 -1.7
v 1.6 2 -1.2
v 1.6 2 -1.8
v 1.6 2 -2.2
v 1.6 2 -2.8
v 1.6 2.2 -1.4
v 1.6 2.2 -1.6
v 1.6 2.2 -2.4
v 1.6 2.2 -2.6
v 1.6 2.4 -1.4
v 1.6 2.4 -1.6
v 1.6 2.4 -2.4
v 1.6 2.4 -2.6
v 1.6 2.5 -1.2
v 1.6 2.5 -1.8
v 1.6 2.5 -2.2
v 1.6 2.5 -2.8
v 3 2 -1.2
v 3 2 -1.8
v 3 2 -2.2
v 3 2 -2.8
v 3 2.2 -1.4
v 3 2.2 -1.6
v 3 2.2 -2.4
v 3 2.2 -2.6
v 3 2.5 -0.8
v 3 2.5 -1.2
v 3 2.5 -1.4
v 3 2.5 -1.6
v 3 2.5 -1.8
v 3 2.5 -2.2
v 3 2.5 -2.4
v 3 2.5 -2.6
v 3 2.5 -2.8
v 3 2.5 -3.2
v 3 2.7 -0.8
v 3 2.7 -1.2
v 3 2.7 -1.8
v 3 2.7 -2.2
v 3 2.7 -2.8
v 3 2.7 -3.2
v 3 2.8 -1.2
v 3 2.8 -1.8
v 3 2.8 -2.2
v 3 2.8 -2.8
v 3 2.9 -0.8
v 3 2.9 -3.2
v 3 3.2 -0.8
v 3 3.2 -1.1
v 3 3.5 -0.8
v 3 3.5 -1.1
v 3 3.9 -1.5
v 3 3.9 -1.7
v 3 4 -0.8
v 3 4 -1.5
v 3 4 -1.7
v 3 4 -1.9
v 3 4 -2.5
v 3 4 -2.9
v 3 4 -3.2
v 3 4.2 -1.6
v 3 4.2 -1.7
v 3 4.5 -1.9
v 3 4.5 -2.5
v 3 4.8 -1.6
v 3 4.8 -2.9
v 3.2 3.9 -1.5
v 3.2 3.9 -1.7
v 3.2 4.2 -1.5
v 3.2 4.2 -1.7
v 1 2.5 -0.8
v 1 2.7 -0.8
v 1 2.9 -0.8
v 1 3.2 -0.8
v 1 3.5 -0.8
v 1 4 -0.8
v 1.3 3.2 -0.8
v 1.3 3.5 -0.8
v 1.6 2.9 -0.8
v 1.6 3.2 -0.8
v 1.6 3.5 -0.8
v 1.6 4 -0.8
v 2.4 2.9 -0.8
v 2.4 3.2 -0.8
v 2.4 3.5 -0.8
v 2.4 4 -0.8
v 2.7 3.2 -0.8
v 2.7 3.5 -0.8
v 3 2.5 -0.8
v 3 2.7 -0.8
v 3 2.9 -0.8
v 3 3.2 -0.8
v 3 3.5 -0.8
v 3 4 -0.8
v 1 2 -1.2
v 1 2.5 -1.2
v 1.1 2.5 -1.2
v 1.6 2 -1.2
v 1.6 2.5 -1.2
v 2.4 2 -1.2
v 2.4 2.5 -1.2
v 2.9 2.5 -1.2
v 3 2 -1.2
v 3 2.5 -1.2
v 0.8 3.9 -1.5
v 0.8 4.2 -1.5
v 1 3.9 -1.5
v 1 4 -1.5
v 1 4.2 -1.5
v 3 3.9 -1.5
v 3 4 -1.5
v 3 4.2 -1.5
v 3.2 3.9 -1.5
v 3.2 4.2 -1.5
v 1 4 -1.6
v 1 4.2 -1.6
v 1 4.8 -1.6
v 1.4 4 -1.6
v 1.4 4.5 -1.6
v 2.6 4 -1.6
v 2.6 4.5 -1.6
v 3 4 -1.6
v 3 4.2 -1.6
v 3 4.8 -1.6
v 1.4 2.4 -1.7
v 1.4 2.5 -1.7
v 1.5 2.4 -1.7
v 1.5 2.5 -1.7
v 1 2 -2.2
v 1 2.5 -2.2
v 1.1 2.5 -2.2
v 1.6 2 -2.2
v 1.6 2.5 -2.2
v 2.4 2 -2.2
v 2.4 2.5 -2.2
v 2.9 2.5 -2.2
v 3 2 -2.2
v 3 2.5 -2.2
v 1.4 2.4 -1.6
v 1.4 2.5 -1.6
v 1.5 2.4 -1.6
v 1.5 2.5 -1.6
v 0.8 3.9 -1.7
v 0.8 4.2 -1.7
v 1 3.9 -1.7
v 1 4 -1.7
v 1 4.2 -1.7
v 3 3.9 -1.7
v 3 4 -1.7
v 3 4.2 -1.7
v 3.2 3.9 -1.7
v 3.2 4.2 -1.7
v 1 2 -1.8
v 1 2.5 -1.8
v 1.1 2.5 -1.8
v 1.6 2 -1.8
v 1.6 2.5 -1.8
v 2.4 2 -1.8
v 2.4 2.5 -1.8
v 2.9 2.5 -1.8
v 3 2 -1.8
v 3 2.5 -1.8
v 1 2 -2.8
v 1 2.5 -2.8
v 1.1 2.5 -2.8
v 1.6 2 -2.8
v 1.6 2.5 -2.8
v 2.4 2 -2.8
v 2.4 2.5 -2.8
v 2.9 2.5 -2.8
v 3 2 -2.8
v 3 2.5 -2.8
v 1 4 -2.9
v 1 4.8 -2.9
v 1.4 4 -2.9
v 1.4 4.5 -2.9
v 2.6 4 -2.9
v 2.6 4.5 -2.9
v 3 4 -2.9
v 3 4.8 -2.9
v 1 2.5 -3.2
v 1 2.7 -3.2
v 1 2.9 -3.2
v 1 4 -3.2
v 3 2.5 -3.2
v 3 2.7 -3.2
v 3 2.9 -3.2
v 3 4 -3.2
v 1 2 -1.2
v 1.6 2 -1.2
v 2.4 2 -1.2
v 3 2 -1.2
v 1 2 -1.8
v 1.6 2 -1.8
v 2.4 2 -1.8
v 3 2 -1.8
v 1 2 -2.2
v 1.6 2 -2.2
v 2.4 2 -2.2
v 3 2 -2.2
v 1 2 -2.8
v 1.6 2 -2.8
v 2.4 2 -2.8
v 3 2 -2.8
v 1 2.5 -0.8
v 3 2.5 -0.8
v 1.1 2.5 -0.9
v 2.9 2.5 -0.9
v 1 2.5 -1.2
v 1.1 2.5 -1.2
v 1.6 2.5 -1.2
v 2.4 2.5 -1.2
v 2.9 2.5 -1.2
v 3 2.5 -1.2
v 1.4 2.5 -1.6
v 1.5 2.5 -1.6
v 1.4 2.5 -1.7
v 1.5 2.5 -1.7
v 1 2.5 -1.8
v 1.1 2.5 -1.8
v 1.6 2.5 -1.8
v 2.4 2.5 -1.8
v 2.9 2.5 -1.8
v 3 2.5 -1.8
v 1 2.5 -2.2
v 1.1 2.5 -2.2
v 1.6 2.5 -2.2
v 2.4 2.5 -2.2
v 2.9 2.5 -2.2
v 3 2.5 -2.2
v 1 2.5 -2.8
v 1.1 2.5 -2.8
v 1.6 2.5 -2.8
v 2.4 2.5 -2.8
v 2.9 2.5 -2.8
v 3 2.5 -2.8
v 1.1 2.5 -3.1
v 2.9 2.5 -3.1
v 1 2.5 -3.2
v 3 2.5 -3.2
v 0.8 3.9 -1.5
v 1 3.9 -1.5
v 3 3.9 -1.5
v 3.2 3.9 -1.5
v 0.8 3.9 -1.7
v 1 3.9 -1.7
v 3 3.9 -1.7
v 3.2 3.9 -1.7
v 1.4 2.4 -1.6
v 1.5 2.4 -1.6
v 1.4 2.4 -1.7
v 1.5 2.4 -1.7
v 1 4 -0.8
v 1.6 4 -0.8
v 2.4 4 -0.8
v 3 4 -0.8
v 1.6 4 -0.9
v 2.4 4 -0.9
v 1 4 -1.5
v 3 4 -1.5
v 1 4 -1.6
v 1.4 4 -1.6
v 2.6 4 -1.6
v 3 4 -1.6
v 1 4 -2.9
v 1.4 4 -2.9
v 2.6 4 -2.9
v 3 4 -2.9
v 1 4 -3.2
v 3 4 -3.2
v 0.8 4.2 -1.5
v 1 4.2 -1.5
v 3 4.2 -1.5
v 3.2 4.2 -1.5
v 1 4.2 -1.6
v 3 4.2 -1.6
v 0.8 4.2 -1.7
v 1 4.2 -1.7
v 3 4.2 -1.7
v 3.2 4.2 -1.7
v 1 4.8 -1.6
v 3 4.8 -1.6
v 1 4.8 -2.9
v 3 4.8 -2.9

# faces
f 3/6/1 2/6/1 1/6/1
f 4/6/1 2/6/1 3/6/1
f 9/7/1 6/7/1 5/7/1
f 10/7/1 6/7/1 9/7/1
f 11/7/1 8/7/1 7/7/1
f 12/7/1 8/7/1 11/7/1
f 14/7/1 9/7/1 5/7/1
f 15/4/1 10/4/1 9/4/1
f 15/7/1 9/7/1 14/7/1
f 16/7/1 6/7/1 10/7/1
f 16/4/1 10/4/1 15/4/1
f 17/7/1 6/7/1 16/7/1
f 18/7/1 11/7/1 7/7/1
f 19/4/1 12/4/1 11/4/1
f 19/7/1 11/7/1 18/7/1
f 20/7/1 8/7/1 12/7/1
f 20/4/1 12/4/1 19/4/1
f 21/7/1 8/7/1 20/7/1
f 23/5/1 14/5/1 13/5/1
f 24/7/1 15/7/1 14/7/1
f 24/5/1 14/5/1 23/5/1
f 24/7/1 17/7/1 16/7/1
f 24/7/1 16/7/1 15/7/1
f 25/5/1 18/5/1 17/5/1
f 25/7/1 17/7/1 24/7/1
f 26/7/1 19/7/1 18/7/1
f 26/5/1 18/5/1 25/5/1
f 26/7/1 21/7/1 20/7/1
f 26/7/1 20/7/1 19/7/1
f 27/5/1 22/5/1 21/5/1
f 27/7/1 21/7/1 26/7/1
f 28/5/1 22/5/1 27/5/1
f 29/7/1 25/7/1 24/7/1
f 29/2/1 24/2/1 23/2/1
f 30/2/1 26/2/1 25/2/1
f 30/7/1 25/7/1 29/7/1
f 31/7/1 27/7/1 26/7/1
f 31/2/1 26/2/1 30/2/1
f 32/2/1 28/2/1 27/2/1
f 32/7/1 27/7/1 31/7/1
f 33/2/1 29/2/1 23/2/1
f 33/2/1 31/2/1 30/2/1
f 33/2/1 32/2/1 31/2/1
f 33/2/1 30/2/1 29/2/1
f 34/2/1 28/2/1 32/2/1
f 34/2/1 32/2/1 33/2/1
f 35/1/1 34/1/1 33/1/1
f 36/1/1 34/1/1 35/1/1
f 37/4/1 36/4/1 35/4/1
f 38/1/1 34/1/1 36/1/1
f 38/4/1 36/4/1 37/4/1
f 39/1/1 38/1/1 37/1/1
f 39/1/1 34/1/1 38/1/1
f 40/1/1 34/1/1 39/1/1
f 41/1/1 39/1/1 37/1/1
f 42/1/1 39/1/1 41/1/1
f 43/1/1 34/1/1 40/1/1
f 44/1/1 34/1/1 43/1/1
f 45/1/1 34/1/1 44/1/1
f 46/1/1 34/1/1 45/1/1
f 47/1/1 34/1/1 46/1/1
f 49/4/1 44/4/1 43/4/1
f 50/7/1 45/7/1 44/7/1
f 50/4/1 49/4/1 48/4/1
f 50/4/1 44/4/1 49/4/1
f 51/4/1 46/4/1 45/4/1
f 51/7/1 45/7/1 50/7/1
f 52/4/1 50/4/1 48/4/1
f 52/4/1 51/4/1 50/4/1
f 53/4/1 46/4/1 51/4/1
f 53/4/1 51/4/1 52/4/1
f 56/7/1 55/7/1 54/7/1
f 57/7/1 55/7/1 56/7/1
f 62/7/1 59/7/1 58/7/1
f 63/7/1 59/7/1 62/7/1
f 64/7/1 61/7/1 60/7/1
f 65/7/1 61/7/1 64/7/1
f 66/7/1 62/7/1 58/7/1
f 66/4/1 63/4/1 62/4/1
f 67/7/1 59/7/1 63/7/1
f 67/4/1 63/4/1 66/4/1
f 68/4/1 65/4/1 64/4/1
f 68/7/1 64/7/1 60/7/1
f 69/7/1 61/7/1 65/7/1
f 69/4/1 65/4/1 68/4/1
f 70/7/1 66/7/1 58/7/1
f 70/7/1 67/7/1 66/7/1
f 71/7/1 59/7/1 67/7/1
f 71/7/1 67/7/1 70/7/1
f 72/7/1 68/7/1 60/7/1
f 72/7/1 69/7/1 68/7/1
f 73/7/1 61/7/1 69/7/1
f 73/7/1 69/7/1 72/7/1
f 76/6/1 75/6/1 74/6/1
f 77/6/1 75/6/1 76/6/1
f 78/6/2 79/6/2 80/6/2
f 80/6/2 79/6/2 81/6/2
f 82/7/2 83/7/2 84/7/2
f 84/7/2 83/7/2 85/7/2
f 86/7/2 87/7/2 90/7/2
f 90/7/2 87/7/2 91/7/2
f 88/7/2 89/7/2 92/7/2
f 92/7/2 89/7/2 93/7/2
f 86/7/2 90/7/2 94/7/2
f 90/4/2 91/4/2 94/4/2
f 91/7/2 87/7/2 95/7/2
f 94/4/2 91/4/2 95/4/2
f 92/4/2 93/4/2 96/4/2
f 88/7/2 92/7/2 96/7/2
f 93/7/2 89/7/2 97/7/2
f 96/4/2 93/4/2 97/4/2
f 86/7/2 94/7/2 98/7/2
f 94/7/2 95/7/2 98/7/2
f 95/7/2 87/7/2 99/7/2
f 98/7/2 95/7/2 99/7/2
f 88/7/2 96/7/2 100/7/2
f 96/7/2 97/7/2 100/7/2
f 97/7/2 89/7/2 101/7/2
f 100/7/2 97/7/2 101/7/2
f 102/7/2 103/7/2 106/7/2
f 106/7/2 103/7/2 107/7/2
f 104/7/2 105/7/2 108/7/2
f 108/7/2 105/7/2 109/7/2
f 102/7/2 106/7/2 111/7/2
f 106/4/2 107/4/2 112/4/2
f 111/7/2 106/7/2 112/7/2
f 107/7/2 103/7/2 113/7/2
f 112/4/2 107/4/2 113/4/2
f 113/7/2 103/7/2 114/7/2
f 104/7/2 108/7/2 115/7/2
f 108/4/2 109/4/2 116/4/2
f 115/7/2 108/7/2 116/7/2
f 109/7/2 105/7/2 117/7/2
f 116/4/2 109/4/2 117/4/2
f 117/7/2 105/7/2 118/7/2
f 110/5/2 111/5/2 120/5/2
f 111/7/2 112/7/2 121/7/2
f 120/5/2 111/5/2 121/5/2
f 113/7/2 114/7/2 121/7/2
f 112/7/2 113/7/2 121/7/2
f 114/5/2 115/5/2 122/5/2
f 121/7/2 114/7/2 122/7/2
f 115/7/2 116/7/2 123/7/2
f 122/5/2 115/5/2 123/5/2
f 117/7/2 118/7/2 123/7/2
f 116/7/2 117/7/2 123/7/2
f 118/5/2 119/5/2 124/5/2
f 123/7/2 118/7/2 124/7/2
f 124/5/2 119/5/2 125/5/2
f 121/7/2 122/7/2 126/7/2
f 120/2/2 121/2/2 126/2/2
f 122/2/2 123/2/2 127/2/2
f 126/7/2 122/7/2 127/7/2
f 123/7/2 124/7/2 128/7/2
f 127/2/2 123/2/2 128/2/2
f 124/2/2 125/2/2 129/2/2
f 128/7/2 124/7/2 129/7/2
f 120/2/2 126/2/2 130/2/2
f 127/2/2 128/2/2 130/2/2
f 128/2/2 129/2/2 130/2/2
f 126/2/2 127/2/2 130/2/2
f 129/2/2 125/2/2 131/2/2
f 130/2/2 129/2/2 131/2/2
f 130/1/2 131/1/2 132/1/2
f 132/1/2 131/1/2 133/1/2
f 132/4/2 133/4/2 134/4/2
f 133/1/2 131/1/2 135/1/2
f 134/4/2 133/4/2 135/4/2
f 134/1/2 135/1/2 136/1/2
f 135/1/2 131/1/2 136/1/2
f 136/1/2 131/1/2 137/1/2
f 134/1/2 136/1/2 138/1/2
f 138/1/2 136/1/2 139/1/2
f 137/1/2 131/1/2 140/1/2
f 140/1/2 131/1/2 141/1/2
f 141/1/2 131/1/2 142/1/2
f 142/1/2 131/1/2 143/1/2
f 143/1/2 131/1/2 144/1/2
f 140/4/2 141/4/2 146/4/2
f 141/7/2 142/7/2 147/7/2
f 145/4/2 146/4/2 147/4/2
f 146/4/2 141/4/2 147/4/2
f 142/4/2 143/4/2 148/4/2
f 147/7/2 142/7/2 148/7/2
f 145/4/2 147/4/2 149/4/2
f 147/4/2 148/4/2 149/4/2
f 148/4/2 143/4/2 150/4/2
f 149/4/2 148/4/2 150/4/2
f 151/6/2 152/6/2 153/6/2
f 153/6/2 152/6/2 154/6/2
f 161/1/3 158/1/3 157/1/3
f 161/4/3 159/4/3 158/4/3
f 162/1/3 160/1/3 159/1/3
f 162/4/3 159/4/3 161/4/3
f 163/2/3 157/2/3 156/2/3
f 163/1/3 161/1/3 157/1/3
f 164/3/3 162/3/3 161/3/3
f 164/1/3 161/1/3 163/1/3
f 165/1/3 160/1/3 162/1/3
f 165/3/3 162/3/3 164/3/3
f 166/1/3 160/1/3 165/1/3
f 167/2/3 164/2/3 163/2/3
f 167/2/3 163/2/3 156/2/3
f 168/3/3 165/3/3 164/3/3
f 168/2/3 164/2/3 167/2/3
f 169/2/3 166/2/3 165/2/3
f 169/3/3 165/3/3 168/3/3
f 170/2/3 166/2/3 169/2/3
f 171/1/3 168/1/3 167/1/3
f 171/3/3 169/3/3 168/3/3
f 172/1/3 170/1/3 169/1/3
f 172/3/3 169/3/3 171/3/3
f 173/5/3 156/5/3 155/5/3
f 174/2/3 167/2/3 156/2/3
f 174/5/3 156/5/3 173/5/3
f 175/1/3 171/1/3 167/1/3
f 175/2/3 167/2/3 174/2/3
f 176/4/3 172/4/3 171/4/3
f 176/1/3 171/1/3 175/1/3
f 177/1/3 170/1/3 172/1/3
f 177/4/3 172/4/3 176/4/3
f 178/1/3 170/1/3 177/1/3
f 181/7/3 180/7/3 179/7/3
f 182/7/3 181/7/3 179/7/3
f 183/7/3 181/7/3 182/7/3
f 186/7/3 185/7/3 184/7/3
f 187/7/3 186/7/3 184/7/3
f 188/7/3 186/7/3 187/7/3
f 191/6/3 190/6/3 189/6/3
f 192/6/3 190/6/3 191/6/3
f 193/6/3 190/6/3 192/6/3
f 197/6/3 195/6/3 194/6/3
f 197/6/3 196/6/3 195/6/3
f 198/6/3 196/6/3 197/6/3
f 202/4/3 200/4/3 199/4/3
f 202/4/3 201/4/3 200/4/3
f 203/4/3 201/4/3 202/4/3
f 204/7/3 203/7/3 202/7/3
f 205/4/3 201/4/3 203/4/3
f 205/7/3 203/7/3 204/7/3
f 206/4/3 205/4/3 204/4/3
f 207/4/3 205/4/3 206/4/3
f 208/4/3 201/4/3 205/4/3
f 208/4/3 205/4/3 207/4/3
f 211/7/3 210/7/3 209/7/3
f 212/7/3 210/7/3 211/7/3
f 215/7/3 214/7/3 213/7/3
f 216/7/3 215/7/3 213/7/3
f 217/7/3 215/7/3 216/7/3
f 220/7/3 219/7/3 218/7/3
f 221/7/3 220/7/3 218/7/3
f 222/7/3 220/7/3 221/7/3
f 223/7/4 224/7/4 225/7/4
f 225/7/4 224/7/4 226/7/4
f 227/6/4 228/6/4 229/6/4
f 229/6/4 228/6/4 230/6/4
f 230/6/4 228/6/4 231/6/4
f 232/6/4 233/6/4 235/6/4
f 233/6/4 234/6/4 235/6/4
f 235/6/4 234/6/4 236/6/4
f 237/7/4 238/7/4 239/7/4
f 237/7/4 239/7/4 240/7/4
f 240/7/4 239/7/4 241/7/4
f 242/7/4 243/7/4 244/7/4
f 242/7/4 244/7/4 245/7/4
f 245/7/4 244/7/4 246/7/4
f 247/7/4 248/7/4 249/7/4
f 247/7/4 249/7/4 250/7/4
f 250/7/4 249/7/4 251/7/4
f 252/7/4 253/7/4 254/7/4
f 252/7/4 254/7/4 255/7/4
f 255/7/4 254/7/4 256/7/4
f 257/4/4 258/4/4 259/4/4
f 259/4/4 258/4/4 260/4/4
f 259/7/4 260/7/4 261/7/4
f 260/4/4 258/4/4 262/4/4
f 261/7/4 260/7/4 262/7/4
f 261/4/4 262/4/4 263/4/4
f 262/4/4 258/4/4 264/4/4
f 263/4/4 262/4/4 264/4/4
f 265/5/4 266/5/4 269/5/4
f 266/2/4 267/2/4 270/2/4
f 269/5/4 266/5/4 270/5/4
f 267/1/4 268/1/4 271/1/4
f 270/2/4 267/2/4 271/2/4
f 271/1/4 268/1/4 272/1/4
f 277/7/5 274/7/5 273/7/5
f 278/7/5 274/7/5 277/7/5
f 279/7/5 276/7/5 275/7/5
f 280/7/5 276/7/5 279/7/5
f 285/7/5 282/7/5 281/7/5
f 286/7/5 282/7/5 285/7/5
f 287/7/5 284/7/5 283/7/5
f 288/7/5 284/7/5 287/7/5
f 291/5/5 290/5/5 289/5/5
f 292/5/5 290/5/5 291/5/5
f 293/5/5 291/5/5 289/5/5
f 294/1/5 292/1/5 291/1/5
f 294/5/5 291/5/5 293/5/5
f 295/1/5 292/1/5 294/1/5
f 296/1/5 292/1/5 295/1/5
f 297/5/5 290/5/5 292/5/5
f 297/1/5 292/1/5 296/1/5
f 298/5/5 290/5/5 297/5/5
f 301/1/5 300/1/5 299/1/5
f 302/1/5 300/1/5 301/1/5
f 305/1/5 296/1/5 295/1/5
f 306/1/5 296/1/5 305/1/5
f 309/5/5 304/5/5 303/5/5
f 310/1/5 305/1/5 304/1/5
f 310/5/5 304/5/5 309/5/5
f 310/1/5 306/1/5 305/1/5
f 310/1/5 307/1/5 306/1/5
f 311/1/5 307/1/5 310/1/5
f 312/1/5 307/1/5 311/1/5
f 313/5/5 308/5/5 307/5/5
f 313/1/5 307/1/5 312/1/5
f 314/5/5 308/5/5 313/5/5
f 317/1/5 312/1/5 311/1/5
f 318/1/5 312/1/5 317/1/5
f 321/5/5 316/5/5 315/5/5
f 321/1/5 317/1/5 316/1/5
f 321/1/5 319/1/5 318/1/5
f 321/1/5 318/1/5 317/1/5
f 322/5/5 320/5/5 319/5/5
f 322/1/5 319/1/5 321/1/5
f 323/5/5 321/5/5 315/5/5
f 323/5/5 322/5/5 321/5/5
f 324/5/5 320/5/5 322/5/5
f 324/5/5 322/5/5 323/5/5
f 329/6/5 326/6/5 325/6/5
f 330/6/5 326/6/5 329/6/5
f 331/6/5 328/6/5 327/6/5
f 332/6/5 328/6/5 331/6/5
f 333/7/6 334/7/6 335/7/6
f 335/7/6 334/7/6 336/7/6
f 337/1/6 338/1/6 341/1/6
f 338/2/6 339/2/6 341/2/6
f 339/1/6 340/1/6 342/1/6
f 341/2/6 339/2/6 342/2/6
f 337/1/6 341/1/6 343/1/6
f 341/1/6 342/1/6 343/1/6
f 342/1/6 340/1/6 344/1/6
f 343/1/6 342/1/6 344/1/6
f 343/1/6 344/1/6 345/1/6
f 345/1/6 344/1/6 346/1/6
f 346/1/6 344/1/6 347/1/6
f 347/1/6 344/1/6 348/1/6
f 349/1/6 350/1/6 353/1/6
f 351/1/6 352/1/6 353/1/6
f 350/1/6 351/1/6 353/1/6
f 353/1/6 352/1/6 354/1/6
f 355/6/6 356/6/6 359/6/6
f 357/6/6 358/6/6 360/6/6
f 355/6/6 359/6/6 361/6/6
f 361/6/6 359/6/6 362/6/6
f 360/6/6 358/6/6 363/6/6
f 363/6/6 358/6/6 364/6/6
f 365/4/6 366/4/6 367/4/6
f 367/4/6 366/4/6 368/4/6
